PathFileType	4	(X/Y/Z)	/home/abdul/Desktop/myosuite/custom_workspace/IK/output/S3_12_1.trc
DataRate	CameraRate	NumFrames	NumMarkers	Units	OrigDataRate	OrigDataStartFrame	OrigNumFrames
200.0	200.0	67	3	mm	200.0	197	786
Frame#	Time	V_Shoulder			V_Elbow			V_Wrist		
		X1	Y1	Z1	X2	Y2	Z2	X3	Y3	Z3

197	0.98	-119.2462933662366	606.3916891560053	322.2411219816782	-301.46425643543915	431.12644188482	51.78598687909601	-107.68806735418593	201.2789523966302	36.9577429934598
198	0.985	-119.16387936905232	606.2697010830509	322.32976630810253	-301.4903445457001	430.7839485359283	52.17761819106438	-107.44834248551567	200.95429051509166	37.33065244421818
199	0.99	-119.08321948281048	606.1583845500535	322.4149890392131	-301.52842672448475	430.4582228705767	52.56947271561154	-107.21039964843662	200.65869484652234	37.73144396722506
200	0.995	-119.00430251030542	606.0579362396289	322.49682404018614	-301.5786692008537	430.1494239538863	52.96177468078199	-106.97425514863906	200.39297860111233	38.16134240193669
201	1.0	-118.9271171931785	605.9685474227703	322.57530867495666	-301.64121785711916	429.85768432948964	53.35475143395293	-106.73991907526661	200.15793088226002	38.62156936445383
202	1.005	-118.85165223515268	605.8904035449792	322.65048369054745	-301.7161977225282	429.5831097759732	53.74863274105335	-106.50739537487425	199.95431530430517	39.11333971468778
203	1.01	-118.77789632222073	605.8236838134036	322.7223930960649	-301.8037125245704	429.32577915366824	54.143650063085026	-106.27668200645596	199.7828686072234	39.6378579750294
204	1.015	-118.70583813983916	605.7685607860346	322.79108403664515	-301.9038442989146	429.0857443403844	54.54003581275124	-106.04777117408895	199.64429927090984	40.19631471202528
205	1.02	-118.63546638718806	605.725199964022	322.8566066626527	-302.0166530588533	428.86303025430345	54.93802259419057	-105.82064963324494	199.53928613204226	40.78988289286622
206	1.025	-118.56676978856747	605.6937593881712	322.9190139944398	-302.14217652501213	428.657634961897	55.33784242898618	-105.59529906636395	199.46847700686683	41.41971422875704
207	1.03	-118.49973710200815	605.6743892406892	322.9783617829912	-302.28042991595277	428.46952986840097	55.73972597177688	-105.37169652287184	199.4324873235837	42.086935517461704
208	1.035	-118.43435712518306	605.6672314532448	323.0347083667891	-302.43140580017814	428.2986599880785	56.14390171893185	-105.14981491845626	199.43189876832813	42.79264499750045
209	1.04	-118.3706186987123	605.6724193224071	323.08811452524355	-302.5950740099184	428.14494429122044	56.55059521386662	-104.929623588094	199.4672579490382	43.537908726613786
210	1.045	-118.30851070696184	605.6900771335163	323.1386433290449	-302.7713816169532	428.00827612458886	56.960028252672785	-104.71108888705105	199.53907508177323	44.32375699720006
211	1.05	-118.2480220764403	605.7203197940365	323.18635998780434	-302.9602529705982	427.88852370178273	57.372418093806395	-104.4941748338531	199.64782270429168	45.15118080147536
212	1.055	-118.18914177190629	605.7632524774249	323.23133169535816	-303.16158979785246	427.7855306598151	57.78797667563131	-104.27884378905054	199.79393442191736	46.02112835909591
213	1.06	-118.13185879030073	605.8189702785389	323.27362747311844	-303.3752713655743	427.699116678026	58.20690984564155	-104.06505716347763	199.97780369090918	46.934501719920945
214	1.065	-118.07616215262446	605.8875578815854	323.3133180118625	-303.6011547044204	427.62907815532117	58.629416605192574	-103.85277614962934	200.19978264470996	47.89215345447805
215	1.07	-118.02204089388482	605.9690892415944	323.3504755123568	-303.839074894145	427.5751889416188	59.05568837355399	-103.6419624697512	200.4601809685733	48.89488344452078
216	1.075	-117.96948405123713	606.0636272803814	323.3851735252204	-304.0888454097203	427.5372011193069	59.48590827505592	-103.43257913425501	200.75926482816342	49.94343578583987
217	1.08	-117.91848065045072	606.1712235979335	323.4174867904335	-304.3502585275953	427.5148458304624	59.92025045303828	-103.22459120413495	201.09725585777957	51.03849581520474
218	1.085	-117.86901969083038	606.291918200127	323.447491076904	-304.62308579126767	427.5078341455544	60.35887941422704	-103.01796655116253	201.47433021388534	52.180687272970225
219	1.09	-117.82109012872587	606.4257392436585	323.47526302250344	-304.90707853519365	427.5158579693524	60.80194940705309	-102.81267660978276	201.8906176996137	53.37056961248622
220	1.095	-117.77468085976325	606.5727027990326	323.5008799749875	-305.2019684659119	427.53859097977954	61.2496038373003	-102.60869711481375	202.34620096587642	54.608635466995395
221	1.1	-117.72978069993212	606.7328126324202	323.5244198342141	-305.5074682991004	427.5756895954936	61.70197472431833	-102.40600881926775	202.84111479462996	55.89530828419882
222	1.105	-117.68637836566346	606.9060600071616	323.5459608960701	-305.82327245113095	427.6267939680405	62.15918220086371	-102.20459818685737	203.37534546974067	57.23094013811239
223	1.11	-117.64446245303212	607.0924235056491	323.56558169851695	-306.1490577835216	427.6915289945025	62.62133405944189	-102.00445805402515	203.94883024074602	58.615809727230555
224	1.115	-117.60402141621749	607.2918688722835	323.5833608701569	-306.48448439852893	427.76950534666565	63.08852534781168	-101.8055882566353	204.5614568846314	60.050120567362384
225	1.12	-117.56504354535507	607.5043488781579	323.5993769817181	-306.8291964839528	427.86032051283536	63.560838016085185	-101.60799621678692	205.21306337053255	61.53399938680933
226	1.125	-117.52751694391009	607.729803208067	323.61370840084743	-307.1828232050622	427.96355984855984	64.03834061761034	-101.41169748555033	205.90343763202907	63.067494730820016
227	1.13	-117.49142950570285	607.9681583704096	323.62643315059273	-307.5449796413821	428.0787976326542	64.52108806556184	-101.21671623778391	206.63231745142033	64.65057578148719
228	1.135	-117.45676889171386	608.219327630483	323.6376287719407	-307.9152677659116	428.2055981250627	65.00912144688986	-101.02308571555925	207.39939046006862	66.28313139845046
229	1.14	-117.42352250679387	608.4832109676365	323.6473721907685	-308.2932774641791	428.3435166232539	65.50246789498715	-100.83084861710205	208.2042942585598	67.96496938493996
230	1.145	-117.39167747640312	608.7596950566818	323.6557395895506	-308.6785875903706	428.4921005139988	66.00114052213429	-100.64005742854327	209.0466166600647	69.69581598284502
231	1.15	-117.36122062349965	609.048653273917	323.6628062841457	-309.070767057607	428.65089031755303	66.50513841247238	-100.4507746961668	209.9258960598927	71.47531559962317
232	1.155	-117.33213844569582	609.3499457280584	323.66864660597275	-309.46937595928296	428.81942072142635	67.01444667593454	-100.26307323723364	210.84162193380814	73.30303076898252
233	1.16	-117.30441709279766	609.6634193163196	323.6733337898654	-309.8739667182276	428.99722160110036	67.52903656324244	-100.07703628785663	211.79323546723475	75.17844234638034
234	1.165	-117.2780423448396	609.9889078058205	323.6769398678714	-310.2840852602968	429.1838190252229	68.04886564174566	-99.89275758679005	212.7801303170042	77.10094993948698
235	1.17	-117.2529995907242	610.3262319404477	323.67953556924545	-310.6992722088627	429.3787362429829	68.57387803155055	-99.71034139438612	213.80165350681264	79.06987257287153
236	1.175	-117.22927380757251	610.675199573231	323.68119022685636	-311.119064096538	429.58149465153787	69.10400470105459	-99.52990244635014	214.85710645703637	81.08444958527795
237	1.18	-117.20684954088868	611.0356058242375	323.68197169020726	-311.54299459034377	429.79161474153966	69.63916382067262	-99.35156584229907	215.94574614902737	83.14384175698493
238	1.185	-117.18571088563806	611.4072332639239	323.6819462452401	-311.9705957264207	430.00861701896594	70.1792611732172	-99.17546686949083	217.0667864234624	85.24713266387892
239	1.19	-117.16584146833527	611.7898521218286	323.68117854106924	-312.4013991502827	430.2320229016326	70.72419061907578	-99.00175076244419	218.2193994117569	87.39333025402732
240	1.195	-117.1472244302358	612.1832205204189	323.67973152376015	-312.8349373585257	430.461355588917	71.2738346140173	-98.83057239950864	219.40271709898332	89.58136864171613
241	1.2	-117.12984241172028	612.58708473385	323.6776663772418	-313.27074493783255	430.6961409033778	71.82806477716088	-98.66209593777069	220.61583301614962	91.81011011312197
242	1.205	-117.11367753795837	613.0011794713281	323.6750424714088	-313.70835979706123	430.9359081031053	72.38674250635084	-98.49649438799531	221.85780405910782	94.07834733702146
243	1.21	-117.09871140593526	613.4252281847081	323.671917317444	-314.1473243881614	431.1801906637771	72.9497196379092	-98.3339491315993	223.12765243076802	96.38480577320715
244	1.215	-117.08492507291999	613.8589433998956	323.6683465303543	-314.58718691164574	431.4285270295313	73.51683914747797	-98.17464938193437	224.42436770270382	98.72814627058128
245	1.22	-117.07229904645241	614.3020270715601	323.6643837986904	-315.0275025023387	431.68046133189705	74.08793588842491	-98.01879159242363	225.7469089916438	101.10696784623595
246	1.225	-117.06081327592108	614.7541709606071	323.6600808613825	-315.46783439113966	431.9355440761453	74.66283736406437	-97.8665788143434	227.09420724576304	103.519810636209
247	1.23	-117.0504471458014	615.2150570337923	323.6554874915989	-315.9077550385765	432.1933327945367	75.24136452974588	-97.7182200072734	228.4651676351113	105.96515900802386
248	1.235	-117.04117947061972	615.6843578848111	323.65065148750097	-316.34684723597627	432.4533926660505	75.82333262068462	-97.5739293054512	229.85867203995562	108.44144482458728
249	1.24	-117.03298849170528	616.1617371761281	323.64561866973776	-316.78470517015853	432.7152971022798	76.40855200125417	-97.43392524346257	231.2735816302669	110.94705084852754
250	1.245	-117.02585187578798	616.646850100763	323.64043288549675	-317.22093544764994	432.97862829926976	76.9968290313319	-97.29842994487555	232.70873952905413	113.48031427561222
251	1.25	-117.01974671549705	617.1393438631907	323.6351360188975	-317.6551580745368	433.24297775516237	77.58796694518273	-97.16766827758462	234.1629735517443	116.03953038548775
252	1.255	-117.01464953181005	617.6388581784593	323.62976800748646	-318.0870073882052	433.50794675359026	78.18176673828901	-97.0418669797709	235.63509901332537	118.62295629763497
253	1.26	-117.01053627849943	618.1450257885807	323.6243668645671	-318.51613293737535	433.7731468128335	78.77802805748291	-96.9212537605051	237.12392159451878	121.22881482013581
254	1.265	-117.00738234861831	618.6574729951959	323.61896870707454	-318.9422003070107	434.03820010082086	79.37655008971294	-96.80605637912197	238.62824025782595	123.8552983785968
255	1.27	-117.00516258306335	619.1758202074731	323.6136077886803	-319.3648918848751	434.3027398161169	79.97713244477998	-96.69650170757795	240.14685020390675	126.50057301237496
256	1.275	-117.00385128124778	619.6996825041457	323.6083165377906	-319.7839075667237	434.56641053509225	80.57957602740902	-96.59281478006929	241.67854585839592	129.16278242510265
257	1.28	-117.00342221391263	620.2286702085644	323.6031256000843	-320.19896539733975	434.82886852552576	81.18368389408027	-96.49521783423269	243.2221238789523	131.84005207640772
258	1.285	-117.00384863809995	620.7623894755862	323.5980638852177	-320.60980214487427	435.0897820269321	81.78926209012972	-96.4039293482789	244.776386172063	134.5304933016753
259	1.29	-117.0051033143061	621.300442889094	323.59315861730846	-321.01617380620553	435.3488314979524	82.39612046274004	-96.31916307841888	246.34014290889618	137.23220744669717
260	1.295	-117.00715852582704	621.8424300689031	323.58843538879825	-321.4178560413069	435.605709831188	83.00407344558158	-96.24112710093334	247.91221552931174	139.9432900041028
261	1.3	-117.00998610030324	622.3879482857789	323.58391821728276	-321.8146445348983	435.86012253589024	83.6129408110258	-96.17002286321022	249.49143972300166	142.6618347385625
262	1.305	-117.01355743346458	622.9365930832654	323.5796296048898	-322.2063552839509	436.11178788896143	84.22254838604138	-96.10604424803033	251.0766683766396	145.3859377878967
263	1.31	-117.01784351506979	623.4879589049932	323.57559059978	-322.59282480992465	436.36043705475197	84.83272872809302	-96.04937665532077	252.66677447587654	148.1137017274164
